<svg xmlns="http://www.w3.org/2000/svg" width="34" height="34" viewBox="0 0 34 34">
    <g fill="none" fill-rule="evenodd">
        <g>
            <g>
                <g>
                    <path d="M0 2H34V36H0z" transform="translate(-263 -529) translate(252 518) translate(11 9)"/>
                    <g fill="#FF7B30" fill-rule="nonzero">
                        <path d="M14.667 0C15.679 0 16.5.82 16.5 1.833v10.084c0 1.012-.82 1.833-1.833 1.833H5.442c-.544 0-1.06.242-1.408.66L2.292 16.5c-.459.55-1.276.624-1.826.166C.171 16.42 0 16.055 0 15.67V1.833C0 .821.82 0 1.833 0h12.834zM4.125 6.188c-.633 0-1.146.513-1.146 1.145 0 .633.513 1.146 1.146 1.146.633 0 1.146-.513 1.146-1.146 0-.632-.513-1.146-1.146-1.146zm4.125 0c-.633 0-1.146.513-1.146 1.145 0 .633.513 1.146 1.146 1.146.633 0 1.146-.462 1.146-1.095S8.883 6.187 8.25 6.187zm4.125 0c-.633 0-1.146.513-1.146 1.145 0 .633.513 1.146 1.146 1.146.633 0 1.146-.513 1.146-1.146 0-.632-.513-1.146-1.146-1.146z" transform="translate(-263 -529) translate(252 518) translate(11 9) translate(6) translate(2.75 2.75)"/>
                    </g>
                    <path fill="#FF7B30" fill-rule="nonzero" d="M7.91 30.19V28h1.33v-.64H7.91V25h-.76v5.19h.76zm-6.47-.18c.94-.4 1.96-1.34 2.2-2.16.36.79 1.25 1.58 2.09 1.92l.42-.61c-1-.33-2.04-1.29-2.11-2.41-.006-.054-.008-.137-.01-.242v-.238h1.99v-.64H1.25v.64h2.01c0 .22-.01.39-.01.47C3.21 27.9 2.1 29 1 29.42l.44.59zm6.48 3.74v-3.1H2.28v.63h4.88v2.47h.76zm8.364-.01v-4.45h1.43v-.65h-1.43V25h-.76v8.74h.76zM10.074 32c2.25-1.17 3.89-3.22 3.94-6.06h-4.11v.64h3.29c-.16 1.97-1.41 3.81-3.59 4.82l.47.6zm14.755-3.44v-3.08h-5.91v3.08h5.91zm-.76-.63h-4.39v-1.82h4.39v1.82zm-1.8 3.96v-1.72h3.55v-.63h-7.89v.63h3.58v1.72h.76zm2.66 1.57v-.63h-5.26v-1.84h-.76v2.47h6.02zm8.544.28V25h-.76v8.74h.76zm-4.41-3.95c1.26 0 2.27-.79 2.27-2.03 0-1.28-.98-2.08-2.27-2.08-1.27 0-2.28.85-2.28 2.08 0 1.17.99 2.03 2.28 2.03zm0-.64c-.85 0-1.54-.58-1.54-1.39 0-.82.7-1.43 1.54-1.43.85 0 1.53.55 1.53 1.43 0 .82-.7 1.39-1.53 1.39zm-2.62 2.68c.66-.01 1.62-.04 2.65-.09 1.11-.05 2.36-.13 3.11-.22l-.07-.62c-.64.08-1.77.15-2.99.19-1.06.06-2.09.08-2.84.07l.14.67z" transform="translate(-263 -529) translate(252 518) translate(11 9)"/>
                </g>
            </g>
        </g>
    </g>
</svg>
